<?xml version="1.0" encoding="utf-8"?>
<svg viewBox="0 0 511.996 512" xmlns="http://www.w3.org/2000/svg">
  <linearGradient id="a" gradientUnits="userSpaceOnUse" x1="0" x2="512" y1="256" y2="256">
    <stop offset="0" stop-color="#00f2fe"/>
    <stop offset="0.0208" stop-color="#03effe"/>
    <stop offset="0.2931" stop-color="#24d2fe"/>
    <stop offset="0.5538" stop-color="#3cbdfe"/>
    <stop offset="0.7956" stop-color="#4ab0fe"/>
    <stop offset="1" stop-color="#4facfe"/>
  </linearGradient>
  <path 
   fill="#5a67d8"
  d="m143.855469 276.023438c-5.265625 18.667968-3.265625 37.683593 5.636719 53.535156 8.292968 14.769531 22.078124 25.480468 38.816406 30.164062 7.527344 2.105469 17.050781 3.25 27.382812 3.25 26.203125 0 57.574219-7.371094 74.671875-25.035156 5.078125 2.707031 9.8125 4.035156 13.722657 4.636719 2.109374.324219 4.226562.484375 6.351562.484375 17.496094 0 35.296875-10.941406 50.742188-31.386719 12.566406-16.632813 22.382812-38.253906 25.011718-55.082031 2.660156-17.042969-1.355468-33.925782-11.3125-47.53125-10.777344-14.734375-27.351562-24.484375-46.675781-27.460938-4.851563-.746094-9.6875-1.011718-14.445313-.839844-.785156-17.992187-8.972656-35.089843-23.113281-48.203124-13.335937-12.363282-30.097656-19.304688-47.199219-19.546876-18.148437-.273437-35.089843 7.023438-47.726562 20.503907-15.898438 16.953125-31.722656 52.351562-30.675781 82.230469.316406 9.015624 2.179687 16.234374 4.71875 21.996093-12.347657 9.136719-21.46875 22.542969-25.90625 38.285157zm119.027343 32.347656c-.59375 2.097656-7.125 7.957031-22.6875 11.722656-16.609374 4.015625-32.953124 3.390625-41.109374 1.109375-6.527344-1.828125-11.617188-5.707031-14.714844-11.226563-3.660156-6.523437-4.378906-14.726562-2.019532-23.097656 3.179688-11.273437 12.109376-21.726562 25.070313-21.726562 2.296875 0 4.722656.328125 7.261719 1.039062 13.824218 3.867188 35.714844 18.875 44.796875 33.128906 1.039062 2.53125 2.152343 5.015626 3.347656 7.4375.144531.789063.132813 1.332032.054687 1.613282zm53.652344-87.667969c1.875 0 3.75.148437 5.582032.429687 8.621093 1.328126 16.082031 5.535157 20.480468 11.542969 3.6875 5.042969 5.097656 11.179688 4.070313 17.746094v-.003906c-1.335938 8.5625-7.351563 23.835937-17.402344 37.140625-9.421875 12.46875-16.941406 15.816406-19.09375 15.480468-.976563-.152343-3.503906-1.59375-6.761719-6.042968-1.175781-1.609375-2.285156-3.390625-3.332031-5.296875-1.09375-3.132813-2.554687-6.417969-4.449219-9.839844-5.152344-13.816406-7.46875-30.285156-5.929687-40.128906 2.320312-14.878907 14.648437-21.027344 26.835937-21.027344zm-91.636718-59.835937c5.285156-5.632813 11.429687-7.933594 17.527343-7.933594 7.710938 0 15.339844 3.679687 21.023438 8.953125 6.425781 5.957031 10.105469 13.351562 10.367187 20.832031.21875 6.25-2.085937 12.132812-6.667968 17.019531h.003906c-5.957032 6.347657-19.585938 15.640625-35.441406 21.039063-14.863282 5.058594-22.972657 3.636718-24.566407 2.15625-.652343-.605469-1.9375-3.179688-2.125-8.589844-.613281-17.523438 10.183594-43.132812 19.878907-53.476562zm268.5 315.96875c-4.316407 10.136718-16.015626 14.871093-26.15625 10.597656-.828126-.339844-48.148438-19.304688-102.121094 1.253906-1.511719.578125-3.046875.9375-4.582032 1.132812-32.460937 14.53125-67.910156 22.179688-104.539062 22.179688-68.378906 0-132.667969-26.628906-181.019531-74.980469-.929688-.929687-1.835938-1.875-2.75-2.816406-2.40625 28.375-10.238281 47.25-10.832031 48.636719-3.238282 7.601562-10.632813 12.167968-18.40625 12.167968-2.617188 0-5.273438-.519531-7.828126-1.605468-10.136718-4.316406-14.867187-16.015625-10.597656-26.160156.335938-.828126 19.304688-48.148438-1.257812-102.121094-.574219-1.507813-.929688-3.042969-1.128906-4.574219-14.527344-32.460937-22.179688-67.914063-22.179688-104.546875 0-68.378906 26.628906-132.667969 74.980469-181.019531.929687-.929688 1.875-1.835938 2.816406-2.746094-28.378906-2.40625-47.246094-10.242187-48.632813-10.835937-10.164062-4.328126-14.894531-16.074219-10.5625-26.234376 4.316407-10.136718 16.015626-14.871093 26.15625-10.597656.828126.335938 48.148438 19.304688 102.121094-1.253906 1.507813-.578125 3.042969-.933594 4.574219-1.132812 32.460937-14.53125 67.914063-22.179688 104.546875-22.179688 49.179688 0 96.949219 13.984375 138.152344 40.445312 16.683594 10.710938 31.964844 23.246094 45.617187 37.316407 2.410157-28.355469 10.238281-47.214844 10.828125-48.597657 4.332032-10.164062 16.085938-14.890624 26.238282-10.5625 10.136718 4.316407 14.867187 16.011719 10.597656 26.15625-.335938.828126-19.304688 48.148438 1.257812 102.125 3.929688 10.320313-1.25 21.875-11.570312 25.808594-2.34375.894532-4.75 1.316406-7.117188 1.316406-.210937 0-.417968-.019531-.628906-.027343-7.621094.183593-15.011719-4.003907-18.523438-11.324219-20.710937-43.144531-55.074218-77.449219-96.371093-98.683594 8.992187 14.265625 16.023437 31.726563 18.394531 52.789063 1.238281 10.976562-6.65625 20.875-17.632812 22.113281-.761719.085938-1.519532.128906-2.265626.128906-10.042968 0-18.699218-7.550781-19.847656-17.765625-3.453125-30.640625-21.75-50.511719-36.492187-61.789062-18.417969-14.085938-36.464844-19.238281-40.699219-19.449219-83.691406.023438-156.410156 47.894531-192.238281 117.6875 14.316406-9.074219 31.867187-16.175781 53.0625-18.5625 10.988281-1.234375 20.878906 6.660156 22.113281 17.636719 1.238281 10.972656-6.65625 20.875-17.636719 22.109375-30.640625 3.453125-50.511719 21.75-61.785156 36.492187-14.085937 18.417969-19.238281 36.464844-19.449219 40.699219.019532 83.703125 47.90625 156.433594 117.71875 192.253906-6.78125-10.707031-12.457031-23.203125-15.910156-37.679687-2.5625-10.742188 4.070312-21.53125 14.816406-24.09375 10.742188-2.5625 21.53125 4.070312 24.09375 14.816406 6.34375 26.605469 24.207032 43.898437 38.078125 53.714844 17.296875 12.246093 33.527344 16.734375 37.261719 16.921875 83.695312-.023438 156.414062-47.890625 192.242188-117.6875-14.320313 9.074218-31.871094 16.175781-53.066407 18.5625-.757812.085937-1.515625.128906-2.261719.128906-10.042968 0-18.699218-7.546875-19.851562-17.761719-1.234375-10.976562 6.660156-20.878906 17.636719-22.113281 30.640625-3.453125 50.511719-21.75 61.789062-36.492188 14.09375-18.433593 19.246094-36.492187 19.449219-40.707031 0-.359375.035156-.707031.058594-1.058593.015625-.316407.015625-.636719.050781-.945313.035156-.359375.105469-.707031.160156-1.058594.046875-.308593.082031-.621093.144531-.925781.070313-.347656.171876-.679688.261719-1.019531.078125-.296875.140625-.601563.230469-.894531.101562-.324219.230469-.632813.351562-.949219.105469-.296875.203126-.597657.324219-.886719.128907-.300781.28125-.585938.425781-.875.136719-.289062.265626-.585938.417969-.871094.15625-.28125.335938-.550781.503907-.824218.164062-.273438.320312-.554688.5-.820313.175781-.261719.375-.5.5625-.75.195312-.265625.378906-.535156.589843-.789063.191407-.230468.40625-.445312.609375-.671874.226563-.246094.441406-.507813.679688-.746094.210937-.207032.441406-.398438.660156-.601563.253906-.226562.496094-.46875.757812-.683593.230469-.191407.480469-.359376.71875-.539063.273438-.203125.539063-.417969.820313-.609375.257813-.175781.53125-.324219.796875-.484375.28125-.171875.558594-.355469.851562-.515625.277344-.148438.566407-.273438.851563-.410156.296875-.144532.589844-.300782.894531-.429688.300782-.128906.613282-.226562.921875-.339844.304688-.109374.601563-.234374.914063-.332031.339844-.105469.695312-.179687 1.042968-.269531.292969-.070312.574219-.160156.871094-.222656.398438-.082032.808594-.128906 1.214844-.183594.253906-.035156.507812-.089844.769531-.117188.671875-.070312 1.351563-.105468 2.039063-.105468 11.046875 0 20 8.957031 20 20 0 68.382812-26.628906 132.667968-74.976563 181.023437-.929687.929688-1.878906 1.835938-2.820312 2.75 28.378906 2.402344 47.25 10.238281 48.636719 10.828125 10.164062 4.332032 14.894531 16.078125 10.5625 26.238282zm0 0"/>
</svg>